<svg width="100" height="100" viewBox="0 0 100 100" fill="none" xmlns="http://www.w3.org/2000/svg">
<path fill-rule="evenodd" clip-rule="evenodd" d="M25.4125 25.0002H74.5833C88.6 25.0002 100 36.2169 100 50.0002C100 63.7836 88.6 75.0002 74.5875 75.0002H25.4167C11.4 75.0002 0 63.7836 0 50.0002C0 36.2169 11.4 25.0002 25.4125 25.0002ZM47.9917 63.7502C48.6083 64.3919 49.5208 64.3586 50.3292 64.1919L50.3375 64.1961C50.7125 63.8961 50.1792 63.5169 49.6708 63.1544C49.3625 62.9377 49.0667 62.7294 48.9792 62.5419C49.2625 62.2086 48.425 61.4377 47.775 60.8419C47.5526 60.6511 47.3438 60.445 47.15 60.2252C46.6917 59.7294 46.5042 59.1086 46.3167 58.4836C46.1917 58.0669 46.0667 57.6502 45.8583 57.2669C44.5917 54.3752 43.1375 51.5044 41.0958 49.0586C39.7833 47.4336 38.2875 45.9752 36.7917 44.5169C35.8193 43.5852 34.8704 42.6294 33.9458 41.6502C33.0042 40.6961 32.4375 39.5211 31.8667 38.3419C31.3917 37.3586 30.9167 36.3711 30.2167 35.5086C28.1042 32.4461 21.4375 31.6086 20.4583 35.9419C20.4583 36.0752 20.4167 36.1586 20.2958 36.2461C19.7542 36.6377 19.275 37.0794 18.8708 37.6086C17.8792 38.9669 17.7292 41.2627 18.9625 42.4836L18.9667 42.4044C19.0083 41.7919 19.05 41.2127 19.5458 40.7752C20.4958 41.5794 21.9458 41.8669 23.05 41.2627C24.3833 43.1377 24.8083 45.4086 25.2375 47.6794C25.5917 49.5794 25.9458 51.4794 26.8292 53.1627L26.8875 53.2544C27.4042 54.1002 27.9292 54.9627 28.5958 55.7002C28.8417 56.0711 29.3375 56.4669 29.8333 56.8627C30.4875 57.3836 31.1417 57.9044 31.2042 58.3586V58.9544C31.2 60.1419 31.1958 61.3711 31.9708 62.3419C32.4 63.1961 31.3458 64.0502 30.5042 63.9461C30.0375 64.0086 29.5333 63.8877 29.0292 63.7711C28.3417 63.6044 27.6583 63.4461 27.1042 63.7586C26.9458 63.9252 26.725 63.9252 26.5 63.9336C26.2333 63.9419 25.9625 63.9502 25.8042 64.2252C25.7708 64.3044 25.6958 64.3919 25.6167 64.4877C25.4417 64.6961 25.2542 64.9252 25.4792 65.0961L25.5417 65.0544C25.8833 64.7961 26.2083 64.5544 26.6667 64.7044C26.6083 65.0377 26.8292 65.1294 27.05 65.2169L27.1625 65.2669C27.1578 65.3455 27.1467 65.4235 27.1292 65.5002C27.0917 65.6877 27.0583 65.8669 27.2042 66.0294C27.2724 65.9583 27.3365 65.8831 27.3958 65.8044C27.55 65.6127 27.7 65.4211 27.975 65.3461C28.575 66.1377 29.1792 65.8086 29.9375 65.4002C30.7958 64.9377 31.85 64.3669 33.3125 65.1711C32.75 65.1461 32.25 65.2127 31.875 65.6711C31.7792 65.7711 31.7 65.8877 31.8667 66.0211C32.7292 65.4711 33.0917 65.6669 33.4292 65.8544C33.6792 65.9877 33.9083 66.1169 34.3125 65.9544L34.6042 65.8044C35.25 65.4586 35.9125 65.1127 36.6833 65.2336C36.1042 65.3961 35.9 65.7544 35.675 66.1419C35.5667 66.3377 35.45 66.5377 35.2833 66.7252C35.1958 66.8127 35.1583 66.9169 35.2542 67.0586C36.4625 66.9627 36.9208 66.6627 37.5375 66.2586C37.8292 66.0669 38.1625 65.8461 38.625 65.6169C39.1417 65.3044 39.6583 65.5044 40.1583 65.7002C40.7 65.9086 41.2208 66.1086 41.7042 65.6419C41.8583 65.5044 42.05 65.5002 42.2417 65.5002C42.3083 65.5002 42.3792 65.5002 42.45 65.4919C42.2958 64.7002 41.45 64.7086 40.5833 64.7169C39.5833 64.7294 38.5708 64.7419 38.6042 63.5127C39.5292 62.8919 39.5375 61.8169 39.5458 60.8002C39.5458 60.5502 39.5458 60.3127 39.5667 60.0794C40.2458 60.4544 40.9667 60.7461 41.6833 61.0336C42.3583 61.3044 43.0292 61.5752 43.6583 61.9086C44.3167 62.9502 45.3417 64.3252 46.7083 64.2336C46.7417 64.1252 46.775 64.0377 46.8167 63.9294C46.8958 63.9461 46.9792 63.9627 47.0625 63.9877C47.4208 64.0711 47.8042 64.1669 47.9917 63.7502ZM74.7792 51.9627C75.5708 52.7377 76.6417 53.1711 77.7625 53.1711C78.8833 53.1711 79.9542 52.7377 80.7458 51.9627C81.136 51.5835 81.4465 51.1302 81.659 50.6293C81.8715 50.1285 81.9818 49.5902 81.9833 49.0461C81.9818 48.502 81.8715 47.9637 81.659 47.4628C81.4465 46.962 81.136 46.5086 80.7458 46.1294C80.163 45.5606 79.4296 45.1705 78.6322 45.0051C77.8348 44.8397 77.0068 44.906 76.2458 45.1961L73.8292 41.7336L72.1417 42.8669L74.5708 46.3461C73.8778 47.13 73.5129 48.1505 73.5517 49.1961C73.5905 50.2417 74.03 51.2323 74.7792 51.9627ZM67.2083 40.7544C67.9087 41.0935 68.6881 41.2359 69.4632 41.1661C70.2382 41.0964 70.9797 40.8173 71.6083 40.3586C72.3267 39.8355 72.8571 39.0946 73.1208 38.2461C73.3819 37.4009 73.3585 36.4934 73.0542 35.6627C72.7451 34.8279 72.1753 34.1149 71.4292 33.6294C70.5996 33.0853 69.6069 32.846 68.6205 32.9523C67.6341 33.0587 66.7153 33.5042 66.0208 34.2127C65.5699 34.6788 65.2356 35.2448 65.0451 35.8646C64.8547 36.4845 64.8135 37.1406 64.925 37.7794C65.0423 38.4163 65.3093 39.0161 65.7042 39.5294C66.1 40.0502 66.6167 40.4669 67.2083 40.7544ZM67.2083 64.7211C67.9089 65.0593 68.6882 65.2011 69.4631 65.1314C70.2379 65.0617 70.9793 64.7831 71.6083 64.3252C72.3267 63.8022 72.8571 63.0613 73.1208 62.2127C73.3819 61.3675 73.3585 60.46 73.0542 59.6294C72.7451 58.7946 72.1753 58.0816 71.4292 57.5961C70.5999 57.0512 69.607 56.8114 68.6204 56.9178C67.6338 57.0242 66.7149 57.4702 66.0208 58.1794C65.5696 58.6452 65.2351 59.2113 65.0447 59.8312C64.8542 60.4511 64.8132 61.1073 64.925 61.7461C65.0423 62.3829 65.3093 62.9828 65.7042 63.4961C66.1 64.0169 66.6167 64.4336 67.2083 64.7211ZM71.0833 50.0711V48.0211H64.625C64.4614 47.3962 64.1515 46.8192 63.7208 46.3377L66.1542 42.8086L64.3833 41.6586L61.9542 45.1877C61.2095 44.9283 60.4075 44.8806 59.6373 45.0498C58.8672 45.2189 58.159 45.5985 57.5917 46.1461C57.2029 46.5227 56.8935 46.9733 56.6817 47.4713C56.4699 47.9694 56.3599 48.5048 56.3583 49.0461C56.3583 50.1336 56.8042 51.1794 57.5917 51.9461C58.159 52.4937 58.8672 52.8732 59.6373 53.0424C60.4075 53.2116 61.2095 53.1638 61.9542 52.9044L64.3833 56.4336L66.1333 55.2836L63.7208 51.7544C64.1515 51.273 64.4614 50.696 64.625 50.0711H71.0833Z" fill="white"/>
</svg>
