<svg width="86" height="100" viewBox="0 0 86 100" fill="none" xmlns="http://www.w3.org/2000/svg">
<path d="M41.1583 32.3375H6.175C5.37084 32.3446 4.57316 32.1932 3.82754 31.892C3.08192 31.5907 2.40298 31.1454 1.82952 30.5816C1.25606 30.0179 0.799316 29.3466 0.485397 28.6062C0.171479 27.8658 0.00653754 27.0708 0 26.2667V6.07083C0 2.68333 2.79167 0 6.175 0H34.9792C38.425 0 41.1583 2.74167 41.1583 6.07083V32.3375ZM78.675 67.5625H41.1958V32.2917H78.675C82.3 32.2917 85.2917 35.2792 85.2917 38.9V60.9583C85.2917 64.6458 82.3042 67.5625 78.675 67.5625ZM34.9792 100H6.175C2.79167 100 0 97.2625 0 93.9417V73.7208C0 70.4 2.79167 67.6625 6.175 67.6625H41.1583V93.9417C41.1583 97.2625 38.3667 100 34.9792 100Z" fill="#FD5402"/>
</svg>
